<svg xmlns="http://www.w3.org/2000/svg" viewBox="0 0 512 512"><defs><style>.cls-1{fill:none;}.cls-2{fill:#fff;}.cls-3{fill:#e35a7f;}.cls-4{fill:#d21d3f;}.cls-5{fill:#9e1238;}</style></defs><g id="Camada_2" data-name="Camada 2"><g id="Camada_1-2" data-name="Camada 1"><rect class="cls-1" width="512" height="512" transform="translate(512 512) rotate(180)"/><circle class="cls-2" cx="285.5" cy="335.5" r="157"/><path class="cls-3" d="M247.5,244.5s-14.58-13.56-19-20c-5.27-7.67-1.51-34.18,4-42,6-8.49,3-22,3-22a18.64,18.64,0,0,1-11,16c-11.12,5.16-20.76,15.29-27,34-6,18-11.41,54.63,12,74,2.62,2.17,7,5,7,5Z"/><path class="cls-3" d="M143,197.5s-14.5,19-9,42.5,15.5,32.5,19.5,42,9,30.5-2.5,45-6.5,50.5,2.5,64,24,17,24,17-26,10.5-51.5-16.5-56.5-93-27.5-149S143,197.5,143,197.5Z"/><path class="cls-4" d="M94.5,206.5c11-64,31-143,147-147,107.08-3.69,179,83.86,179,191,0,105-36.86,174.48-138.63,187.27-4.73,30.05,23.85,6.17,40.7,3.54,8.21-.56,32.56,4.93,32.56,4.93s-24.81-1.68-33-.48c-25.19,7.2-47,27-48-7.25-12.44-.63-65.85-20.47-75.42-46.87-4.4,2.62-16.31,8.44-24.29,2.86-9.13-6.39-.48-34.14-3-45-1.86-8-12.5-28.5-12.5-28.5s14.91,20.42,16.5,28.5c1.91,9.73-4.15,32.36,4,38,3.84,2.66,17.5-3.5,17.5-3.5a.49.49,0,0,1,.18-.1c-3-26.58,1.73-61.1,17.32-106.4,18.7-54.33,74.45-72.34,50-114-27-46-91.73,1-111,22-20.16,22-33,47.49-42,58C99.5,257.5,88.25,242.88,94.5,206.5Z"/><path class="cls-3" d="M373.5,377.5l6.91,4.06c8.21,4.82,40.35,8.94,56.09-16.06,11.76-18.68,21.86-29.94,28-54,3.18-12.44-5.67-26-5-40a88.76,88.76,0,0,0-7-38s1.65,25.91,1,42c-.29,7.11-6.6,20.73-9,24-11,15-41,17-41,17Z"/><path class="cls-2" d="M299.5,233.5s25-15,28.5,3.5,9.5,31.5,12,33,27.5,13.5,15.5,25.5-49,22-46.5,34.5-7.5,33.5-28,37.5-58.5-13-44-40,25.5-19,35.5-29-7-43,2-54.5S299.5,233.5,299.5,233.5Z"/><path class="cls-3" d="M347,203.5c2.5-28-11.5-63-40-94S230.5,83.5,201,93s-67.5,50.5-67.5,50.5L131.8,142A15.83,15.83,0,0,1,128,123.66,151.34,151.34,0,0,1,142.37,98.5c8.91-12.53,19.24-28.62,36.13-39,27-16.57,62.19-16,93.5-12.23,29,3.45,58.29,5.54,77.5,26.23,9.57,10.31,16.57,30.31,22.25,45,7,18.15,9,37.36.75,52Z"/><path class="cls-5" d="M377.5,152.5c5,63-28.5,104-40,118s-60,48.78-60,48.78c.72-22.44-2.77-48.62-20-68-17.81-20,6.71-42.93,23-44C368.5,201.5,377.5,152.5,377.5,152.5Z"/><path class="cls-5" d="M114,185.5s-10.5,52-14.5,60.5,15,71.5.5,86-18.5,44.5-7,55.5,1.5,42,1.5,42,4-36-31-63.5c-27.41-21.54-22.6-68.84,2-123.5C74.5,222.5,114,185.5,114,185.5Z"/></g></g></svg>